<svg width="108" height="100" viewBox="0 0 108 100" fill="none" xmlns="http://www.w3.org/2000/svg">
<path d="M74.9844 60.0615L74.3564 61.752C73.1091 64.8876 71.1408 67.6686 68.6188 69.8588C66.0967 72.0491 63.0954 73.5838 59.8698 74.3325C59.4379 74.4291 59.006 74.4886 58.5776 74.5592V99.5938C60.8006 99.4504 63.01 99.1374 65.1875 98.6575C83.9609 94.3662 97.3004 78.5161 99.7723 60.0615H74.9844Z" fill="#E41938"/>
<path d="M58.2656 0.0125861C58.2656 0.0125861 65.0461 -0.0914462 67.5325 0.298675C67.5325 0.298675 77.3911 1.29813 88.9484 8.95937L75.7831 30.1968C75.7831 30.1968 68.5053 23.3084 58.2656 25.4671V0.0125861Z" fill="#E41938"/>
<path d="M79.6274 57.1375C79.6274 57.1375 80.9886 54.5702 81.0794 54.2246L102.495 25.6157C102.495 25.6157 110.259 40.9568 105.929 57.145L79.6274 57.1375Z" fill="#E41938"/>
<path d="M102.492 25.6157L64.7636 34.2727C63.1691 34.9992 61.7728 36.1148 60.6971 37.5216C59.6213 38.9285 58.8989 40.5838 58.5929 42.3426C58.5929 42.3426 58.2771 46.4296 59.5221 49.8293C60.0373 51.2672 60.8441 52.5771 61.8896 53.6728C62.935 54.7686 64.1953 55.6252 65.5875 56.1864C65.5875 56.1864 69.4424 57.4905 71.584 56.4019L81.0832 54.2283L102.492 25.6157Z" fill="#F08D26"/>
<path d="M51.1036 30.3227C52.6197 29.921 54.1767 29.7028 55.7425 29.6725V4.72705C52.3905 4.76757 49.0533 5.19128 45.7932 5.9903C26.0071 10.5157 12.0796 28.1232 10.7329 47.7779H6.98696L4.23193 52.2364H50.5047L53.2597 47.7779H35.2087C36.4501 38.8422 42.6534 32.2547 51.1036 30.3227Z" fill="#E41938"/>
<path d="M34.7227 60.2837H46.2728L49.0278 55.8252H2.75502L0 60.2837H8.90391C11.2715 70.9959 17.2785 80.4993 25.8543 87.0999C34.4301 93.7005 45.0173 96.9693 55.7284 96.3235V71.3297C47.0132 72.5261 38.7337 68.3239 34.7227 60.2837Z" fill="#E41938"/>
</svg>
