<svg width="523" height="725" viewBox="0 0 523 725" fill="none" xmlns="http://www.w3.org/2000/svg">
<g clip-path="url(#clip0_233_671)">
<mask id="mask0_233_671" style="mask-type:luminance" maskUnits="userSpaceOnUse" x="0" y="0" width="523" height="725">
<path d="M522.713 0H0.286621V725H522.713V0Z" fill="white"/>
</mask>
<g mask="url(#mask0_233_671)">
<path d="M341.421 410.634C341.482 409.816 341.259 409.003 340.788 408.332C340.586 408.085 340.33 407.888 340.039 407.757C339.748 407.626 339.431 407.564 339.112 407.576C338.786 407.566 338.463 407.631 338.167 407.766C337.87 407.901 337.609 408.102 337.402 408.354C336.915 409.026 336.682 409.85 336.747 410.678C336.711 411.471 336.937 412.253 337.391 412.902C337.592 413.173 337.856 413.391 338.159 413.538C338.463 413.686 338.797 413.757 339.134 413.748C339.449 413.755 339.76 413.69 340.045 413.556C340.33 413.423 340.581 413.226 340.777 412.98C341.265 412.292 341.493 411.453 341.421 410.612M339.123 419.03V421.732H331.074V419.03H333.039V407.442H331.396V404.774H336.78V406.241C337.212 405.735 337.746 405.325 338.347 405.04C338.947 404.754 339.602 404.599 340.267 404.584C340.981 404.563 341.689 404.72 342.327 405.043C342.965 405.365 343.512 405.842 343.919 406.43C344.816 407.687 345.283 409.201 345.252 410.745C345.313 412.297 344.826 413.821 343.875 415.049C343.442 415.606 342.883 416.051 342.244 416.349C341.605 416.647 340.904 416.788 340.2 416.761C338.911 416.743 337.682 416.215 336.78 415.293V419.085L339.123 419.03Z" fill="#E31837"/>
<path d="M369.788 413.759V416.461H364.159V415.46C363.171 416.194 361.98 416.602 360.75 416.628C360.264 416.671 359.774 416.606 359.315 416.438C358.856 416.27 358.44 416.003 358.096 415.657C357.751 415.31 357.487 414.891 357.322 414.43C357.158 413.97 357.096 413.479 357.142 412.992V407.432H355.388V404.774H360.861V412.069C360.82 412.487 360.913 412.908 361.128 413.27C361.257 413.389 361.41 413.478 361.576 413.532C361.743 413.585 361.92 413.602 362.094 413.581C362.854 413.533 363.578 413.24 364.159 412.747V407.443H362.36V404.774H367.911V413.792L369.788 413.759Z" fill="#E31837"/>
<path d="M371.831 416.461V412.424H374.562C374.569 412.689 374.641 412.947 374.773 413.176C374.905 413.405 375.092 413.598 375.317 413.736C375.852 414.08 376.48 414.251 377.115 414.226C377.612 414.254 378.107 414.146 378.548 413.914C378.697 413.833 378.822 413.715 378.912 413.571C379.001 413.426 379.052 413.261 379.058 413.091C379.057 412.939 379.011 412.79 378.926 412.664C378.841 412.537 378.721 412.438 378.581 412.38C377.992 412.132 377.372 411.967 376.738 411.89C375.283 411.745 373.881 411.265 372.641 410.489C372.241 410.214 371.916 409.843 371.695 409.41C371.474 408.977 371.364 408.496 371.375 408.009C371.374 407.536 371.48 407.069 371.686 406.643C371.892 406.217 372.192 405.844 372.563 405.552C373.456 404.851 374.572 404.495 375.705 404.551C376.723 404.545 377.731 404.746 378.67 405.14V404.774H381.345V408.11H378.67C378.425 407.287 377.559 406.886 376.105 406.886C374.995 406.886 374.484 407.187 374.484 407.776C374.483 407.886 374.514 407.994 374.573 408.087C374.632 408.18 374.717 408.253 374.817 408.299C375.366 408.498 375.936 408.636 376.516 408.71C377.614 408.88 378.698 409.133 379.758 409.466C380.445 409.689 381.047 410.12 381.479 410.701C381.923 411.301 382.154 412.033 382.134 412.78C382.15 413.311 382.047 413.839 381.834 414.326C381.621 414.812 381.302 415.245 380.901 415.593C379.922 416.386 378.683 416.782 377.426 416.705C376.916 416.765 376.398 416.72 375.906 416.572C375.414 416.425 374.956 416.179 374.562 415.849V416.439L371.831 416.461Z" fill="#E31837"/>
<path d="M227.154 381.832C227.251 380.094 226.766 378.372 225.777 376.94C225.346 376.355 224.779 375.885 224.125 375.571C223.471 375.257 222.75 375.109 222.025 375.138C221.3 375.103 220.577 375.255 219.928 375.58C219.279 375.906 218.724 376.393 218.317 376.995C217.409 378.411 216.959 380.073 217.029 381.755C216.958 383.444 217.429 385.112 218.372 386.514C218.78 387.101 219.327 387.576 219.965 387.897C220.603 388.217 221.311 388.373 222.025 388.349C222.721 388.355 223.41 388.204 224.04 387.907C224.67 387.611 225.226 387.177 225.666 386.636C226.732 385.271 227.262 383.562 227.154 381.832ZM239.533 368.944V374.849H235.303V393.753C235.303 402.219 230.844 406.452 221.925 406.452C216.818 406.452 213.01 405.526 210.5 403.672L214.475 398.246C216.325 399.451 218.475 400.11 220.681 400.147C222.322 400.201 223.935 399.708 225.267 398.746C226.51 397.812 227.132 395.988 227.132 393.297V391.329C224.467 393.716 221.877 394.91 219.36 394.91C217.898 394.909 216.455 394.572 215.143 393.927C213.83 393.281 212.683 392.343 211.788 391.185C209.632 388.507 208.52 385.136 208.657 381.699C208.518 378.243 209.665 374.858 211.877 372.202C212.833 371.038 214.037 370.102 215.401 369.463C216.765 368.824 218.254 368.499 219.76 368.511C221.18 368.487 222.585 368.795 223.865 369.411C225.145 370.027 226.263 370.933 227.132 372.058V368.911L239.533 368.944Z" fill="black"/>
<path d="M259.885 388.671V394.565H241.877V388.671H246.618V374.849H242.177V368.944H254.09V375.461C254.581 373.544 255.68 371.839 257.221 370.601C258.837 369.237 260.892 368.506 263.005 368.544H264.326V376.272C262.616 376.217 260.908 376.45 259.275 376.962C257.855 377.519 256.7 378.596 256.044 379.975C255.166 381.674 254.731 383.568 254.778 385.48V388.638L259.885 388.671Z" fill="black"/>
<path d="M290.061 361.505C290.058 362.262 289.832 363.002 289.411 363.632C288.99 364.261 288.393 364.752 287.695 365.043C286.997 365.334 286.228 365.412 285.486 365.267C284.743 365.122 284.06 364.761 283.522 364.229C283.166 363.874 282.884 363.452 282.692 362.987C282.499 362.523 282.4 362.025 282.4 361.522C282.4 361.019 282.499 360.52 282.692 360.056C282.884 359.591 283.166 359.169 283.522 358.814C283.878 358.457 284.3 358.175 284.765 357.982C285.23 357.789 285.728 357.69 286.231 357.69C286.734 357.69 287.232 357.789 287.697 357.982C288.162 358.175 288.584 358.457 288.94 358.814C289.297 359.164 289.579 359.583 289.77 360.045C289.961 360.508 290.056 361.004 290.05 361.505M280.191 388.794C280.899 388.813 281.602 388.665 282.242 388.362C282.883 388.059 283.443 387.609 283.877 387.048C284.952 385.436 285.452 383.509 285.298 381.577C285.402 379.764 284.919 377.966 283.922 376.45C283.498 375.861 282.936 375.385 282.286 375.063C281.635 374.741 280.916 374.584 280.191 374.604C276.831 374.604 275.147 377.043 275.139 381.921C275.07 383.651 275.506 385.363 276.394 386.848C276.797 387.481 277.362 387.995 278.029 388.337C278.696 388.679 279.443 388.837 280.191 388.794ZM278.026 361.505C278.039 362.009 277.946 362.511 277.755 362.978C277.564 363.445 277.278 363.868 276.916 364.218C276.562 364.574 276.142 364.856 275.679 365.049C275.216 365.241 274.719 365.341 274.218 365.341C273.717 365.341 273.22 365.241 272.757 365.049C272.294 364.856 271.874 364.574 271.52 364.218C270.803 363.502 270.4 362.529 270.399 361.514C270.398 360.5 270.799 359.526 271.515 358.808C272.23 358.09 273.201 357.686 274.214 357.685C275.227 357.684 276.199 358.086 276.916 358.803C277.278 359.151 277.564 359.572 277.755 360.037C277.946 360.502 278.038 361.002 278.026 361.505ZM280.247 395.154C276.719 395.243 273.296 393.955 270.698 391.563C268.196 388.901 266.802 385.383 266.802 381.727C266.802 378.071 268.196 374.553 270.698 371.891C273.349 369.582 276.744 368.31 280.258 368.31C283.771 368.31 287.166 369.582 289.817 371.891C292.415 374.278 293.71 377.559 293.703 381.732C293.792 383.545 293.495 385.355 292.833 387.044C292.171 388.733 291.158 390.262 289.861 391.529C287.258 393.958 283.803 395.261 280.247 395.154Z" fill="black"/>
<path d="M319.061 381.544C319.184 379.79 318.71 378.046 317.717 376.596C317.294 376.056 316.75 375.624 316.129 375.334C315.507 375.044 314.827 374.905 314.142 374.928C313.456 374.922 312.776 375.067 312.151 375.351C311.526 375.635 310.971 376.052 310.523 376.573C309.524 377.685 309.013 379.442 309.013 381.911C308.911 383.661 309.413 385.392 310.434 386.815C310.866 387.357 311.414 387.795 312.037 388.096C312.661 388.397 313.344 388.553 314.037 388.553C314.729 388.553 315.412 388.397 316.036 388.096C316.66 387.795 317.208 387.357 317.639 386.815C318.706 385.254 319.208 383.374 319.061 381.489M309.068 357.691V371.792C309.937 370.695 311.04 369.808 312.297 369.196C313.554 368.584 314.932 368.262 316.329 368.256C317.859 368.216 319.376 368.532 320.763 369.178C322.15 369.824 323.368 370.784 324.323 371.981C326.455 374.7 327.549 378.09 327.41 381.544C327.41 385.688 326.381 388.95 324.323 391.33C323.377 392.469 322.188 393.38 320.842 393.996C319.497 394.612 318.03 394.917 316.551 394.888C315.143 394.881 313.752 394.58 312.466 394.006C311.18 393.432 310.026 392.596 309.079 391.552V394.499H296.489V388.605H300.93V363.63H296.489V357.725L309.068 357.691Z" fill="black"/>
<path d="M350.537 378.897C350.378 377.533 349.796 376.253 348.871 375.239C348.382 374.732 347.79 374.336 347.135 374.077C346.48 373.818 345.777 373.702 345.074 373.738C342.077 373.738 340.33 375.458 339.834 378.897H350.537ZM352.102 386.837L358.442 388.883C355.792 393.064 351.636 395.155 345.973 395.155C341.451 395.155 337.932 393.961 335.415 391.574C334.151 390.369 333.159 388.907 332.504 387.287C331.849 385.666 331.547 383.924 331.618 382.178C331.564 380.339 331.886 378.509 332.565 376.8C333.244 375.091 334.265 373.539 335.565 372.24C336.865 370.941 338.417 369.923 340.125 369.247C341.833 368.571 343.661 368.253 345.496 368.311C348.194 368.24 350.846 369.018 353.079 370.535C355.1 371.882 356.652 373.825 357.52 376.095C358.378 378.464 358.8 380.97 358.764 383.49H339.701C339.834 385.818 340.574 387.467 341.921 388.438C343.155 389.367 344.652 389.878 346.196 389.895C348.15 389.895 350.122 388.887 352.113 386.871" fill="black"/>
<path d="M379.991 388.671V394.565H362.039V388.671H366.768V374.849H362.327V368.944H374.251V375.461C374.735 373.541 375.835 371.833 377.382 370.601C378.995 369.238 381.046 368.507 383.155 368.544H384.477V376.272C382.77 376.218 381.066 376.451 379.436 376.962C378.014 377.516 376.859 378.594 376.205 379.975C375.328 381.674 374.892 383.567 374.94 385.48V388.638L379.991 388.671Z" fill="black"/>
</g>
<mask id="mask1_233_671" style="mask-type:luminance" maskUnits="userSpaceOnUse" x="137" y="344" width="38" height="37">
<path d="M174.962 344.747H137.902V380.587H174.962V344.747Z" fill="white"/>
</mask>
<g mask="url(#mask1_233_671)">
<path d="M204.418 327.745L203.54 325.765L187.431 346.827L187.331 346.949C186.127 349.931 184.036 352.471 181.342 354.222C178.648 355.974 175.481 356.853 172.271 356.741C169.062 356.628 165.964 355.53 163.399 353.594C160.833 351.659 158.924 348.979 157.931 345.92C156.938 342.861 156.908 339.57 157.846 336.493C158.784 333.416 160.643 330.703 163.173 328.721C165.703 326.739 168.78 325.584 171.988 325.414C175.195 325.243 178.377 326.065 181.102 327.767L183.323 329.157L193.315 313.422L191.095 312.01C184.166 307.667 175.915 305.95 167.833 307.171C159.75 308.391 152.371 312.468 147.029 318.665C141.687 324.861 138.735 332.767 138.707 340.953C138.679 349.14 141.577 357.066 146.876 363.299C152.175 369.531 159.526 373.659 167.6 374.935C175.674 376.212 183.937 374.552 190.895 370.257C197.853 365.962 203.047 359.314 205.537 351.517C208.028 343.72 207.65 335.287 204.473 327.745" fill="#E31837"/>
</g>
<mask id="mask2_233_671" style="mask-type:luminance" maskUnits="userSpaceOnUse" x="177" y="348" width="36" height="36">
<path d="M212.61 348.149H177.382V383.99H212.61V348.149Z" fill="white"/>
</mask>
<g mask="url(#mask2_233_671)">
<path d="M206.537 330.202L205.66 328.222L190.028 347.894L189.439 349.417C188.425 351.912 186.786 354.103 184.68 355.777C182.573 357.452 180.071 358.554 177.415 358.977C174.76 359.4 172.04 359.129 169.519 358.192C166.998 357.254 164.761 355.681 163.024 353.624C161.288 351.568 160.11 349.097 159.606 346.451C159.101 343.806 159.287 341.074 160.144 338.521C161.002 335.968 162.502 333.68 164.501 331.878C166.5 330.076 168.929 328.82 171.553 328.233C175.554 327.333 179.748 328.052 183.222 330.235L185.442 331.614L195.435 315.89L193.214 314.478C186.508 310.269 178.553 308.518 170.702 309.521C162.852 310.524 155.591 314.22 150.154 319.98C144.718 325.74 141.441 333.208 140.881 341.115C140.322 349.021 142.514 356.878 147.085 363.349C151.656 369.819 158.324 374.504 165.954 376.606C173.585 378.708 181.707 378.098 188.939 374.88C196.171 371.661 202.067 366.033 205.623 358.952C209.18 351.871 210.177 343.774 208.447 336.04C208.002 334.043 207.382 332.089 206.593 330.202" fill="#E31837"/>
</g>
<mask id="mask3_233_671" style="mask-type:luminance" maskUnits="userSpaceOnUse" x="177" y="303" width="38" height="43">
<path d="M214.653 303.246H177.148V345.97H214.653V303.246Z" fill="white"/>
</mask>
<g mask="url(#mask3_233_671)">
<path d="M186.886 345.514C184.938 345.948 182.898 345.59 181.214 344.518C179.53 343.446 178.339 341.749 177.904 339.798L177.405 337.574C176.971 335.623 177.326 333.58 178.394 331.891C179.462 330.203 181.154 329.007 183.1 328.567L210.945 322.395L194.58 343.79L186.886 345.514Z" fill="#F7901E"/>
<path d="M211.833 324.385L210.945 322.395L194.68 343.612L194.58 343.745C193.557 346.265 191.903 348.479 189.777 350.171C187.65 351.864 185.124 352.979 182.442 353.407C179.76 353.836 177.013 353.565 174.466 352.619C171.919 351.673 169.659 350.086 167.904 348.009C166.149 345.933 164.959 343.439 164.448 340.767C163.937 338.095 164.123 335.336 164.988 332.757C165.852 330.179 167.367 327.867 169.384 326.046C171.402 324.224 173.855 322.955 176.505 322.361C180.546 321.445 184.786 322.169 188.296 324.374L190.516 325.775L200.575 309.896L198.355 308.472C191.59 304.217 183.563 302.44 175.639 303.443C167.714 304.446 160.381 308.168 154.886 313.975C149.392 319.782 146.075 327.316 145.5 335.296C144.925 343.275 147.128 351.208 151.733 357.745C156.338 364.282 163.062 369.019 170.761 371.152C178.459 373.284 186.658 372.68 193.962 369.441C201.266 366.203 207.225 360.531 210.825 353.389C214.425 346.247 215.444 338.077 213.709 330.268C213.252 328.25 212.625 326.274 211.833 324.363" fill="#E31837"/>
</g>
<mask id="mask4_233_671" style="mask-type:luminance" maskUnits="userSpaceOnUse" x="172" y="325" width="34" height="24">
<path d="M178.082 331.881C176.158 332.317 174.485 333.496 173.426 335.163C172.368 336.829 172.01 338.847 172.43 340.777L172.93 343.001C173.362 344.929 174.54 346.607 176.204 347.668C177.869 348.728 179.885 349.086 181.812 348.661L189.439 346.96L205.682 325.82L178.082 331.881Z" fill="white"/>
</mask>
<g mask="url(#mask4_233_671)">
<mask id="mask5_233_671" style="mask-type:luminance" maskUnits="userSpaceOnUse" x="139" y="306" width="36" height="37">
<path d="M171.253 337.93L168.5 342.59H139.733V306.75H174.962V331.881L171.253 337.93Z" fill="white"/>
</mask>
<g mask="url(#mask5_233_671)">
<path d="M171.542 335.473L174.684 349.562H174.395L171.542 336.763V335.473Z" fill="#FDC489"/>
<path d="M171.542 334.172L174.973 349.563H174.684L171.542 335.473V334.172Z" fill="#FDC487"/>
<path d="M171.542 332.882L175.261 349.562H174.973L171.542 334.172V332.882Z" fill="#FCC286"/>
<path d="M171.542 331.592L175.55 349.562H175.261L171.542 332.893V331.592Z" fill="#FCC286"/>
<path d="M171.542 330.303L175.839 349.563H175.55L171.542 331.593V330.303Z" fill="#FDC285"/>
<path d="M171.542 329.012L176.127 349.562H175.839L171.542 330.302V329.012Z" fill="#FDC285"/>
<path d="M171.542 327.723L176.416 349.563H176.127L171.542 329.013V327.723Z" fill="#FDC283"/>
<path d="M171.542 326.433L176.705 349.563H176.416L171.542 327.723V326.433Z" fill="#FCC083"/>
<path d="M171.675 325.765L176.993 349.562H176.705L171.542 326.432V325.765H171.675Z" fill="#FCC083"/>
<path d="M171.964 325.765L177.271 349.562H176.993L171.675 325.765H171.964Z" fill="#FCC081"/>
<path d="M172.252 325.765L177.559 349.562H177.27L171.963 325.765H172.252Z" fill="#FCC081"/>
<path d="M172.541 325.765L177.848 349.562H177.559L172.252 325.765H172.541Z" fill="#FCC07F"/>
<path d="M172.83 325.765L178.137 349.562H177.848L172.542 325.765H172.83Z" fill="#FCBE7E"/>
<path d="M173.119 325.765L178.426 349.562H178.138L172.831 325.765H173.119Z" fill="#FCBE7E"/>
<path d="M173.407 325.765L178.714 349.562H178.426L173.119 325.765H173.407Z" fill="#FCBE7D"/>
<path d="M173.696 325.765L179.003 349.562H178.714L173.407 325.765H173.696Z" fill="#FCBE7D"/>
<path d="M173.985 325.765L179.292 349.562H179.003L173.696 325.765H173.985Z" fill="#FCBD7B"/>
</g>
</g>
<mask id="mask6_233_671" style="mask-type:luminance" maskUnits="userSpaceOnUse" x="139" y="306" width="36" height="37">
<path d="M139.733 306.749V342.589H168.5L171.253 337.93L174.962 331.881V306.749H139.733Z" fill="white"/>
</mask>
<g mask="url(#mask6_233_671)">
<path d="M206.538 327.743L205.683 325.82L189.573 346.881L189.462 347.015C188.254 349.988 186.162 352.518 183.471 354.261C180.779 356.004 177.617 356.876 174.414 356.76C171.211 356.643 168.121 355.543 165.563 353.608C163.005 351.674 161.103 348.999 160.114 345.945C159.124 342.891 159.096 339.607 160.033 336.537C160.97 333.466 162.826 330.759 165.351 328.781C167.876 326.803 170.946 325.65 174.147 325.478C177.348 325.306 180.524 326.124 183.245 327.821L185.465 329.211L195.457 313.476L193.237 312.064C186.337 307.753 178.126 306.056 170.086 307.279C162.046 308.502 154.708 312.565 149.397 318.733C144.087 324.902 141.154 332.769 141.129 340.914C141.104 349.06 143.988 356.945 149.261 363.146C154.533 369.347 161.846 373.455 169.879 374.728C177.911 376.001 186.133 374.354 193.059 370.085C199.985 365.817 205.158 359.208 207.644 351.453C210.131 343.698 209.766 335.308 206.615 327.799" fill="#E31837"/>
</g>
<mask id="mask7_233_671" style="mask-type:luminance" maskUnits="userSpaceOnUse" x="0" y="0" width="523" height="725">
<path d="M522.713 0H0.286621V725H522.713V0Z" fill="white"/>
</mask>
<g mask="url(#mask7_233_671)">
<path d="M352.634 398.791C351.414 399.167 350.161 399.431 348.893 399.58V413.758H347.061V416.46H354.311V413.758H352.634V398.791Z" fill="#E31837"/>
<path d="M380.779 361.204H381.19C381.656 361.204 382.034 361.049 382.034 360.671C382.034 360.292 381.79 360.103 381.257 360.103C381.096 360.096 380.934 360.115 380.779 360.159V361.204ZM380.779 363.262H379.935V359.592C380.402 359.521 380.873 359.484 381.345 359.481C381.781 359.434 382.219 359.536 382.589 359.77C382.729 359.878 382.834 360.024 382.894 360.19C382.953 360.356 382.963 360.536 382.924 360.708C382.884 360.881 382.796 361.038 382.669 361.161C382.543 361.284 382.384 361.369 382.211 361.404C382.567 361.516 382.755 361.805 382.866 362.305C382.912 362.613 383.002 362.913 383.133 363.195H382.211C382.067 362.916 381.97 362.615 381.923 362.305C381.856 361.927 381.634 361.738 381.168 361.738H380.757L380.779 363.262ZM378.559 361.36C378.548 361.743 378.615 362.124 378.754 362.48C378.894 362.837 379.103 363.161 379.37 363.435C379.638 363.709 379.957 363.926 380.31 364.074C380.662 364.222 381.041 364.297 381.423 364.296C381.799 364.293 382.17 364.215 382.515 364.066C382.86 363.917 383.171 363.7 383.431 363.429C383.691 363.157 383.894 362.836 384.027 362.484C384.161 362.133 384.223 361.758 384.21 361.382C384.234 360.996 384.179 360.608 384.048 360.244C383.917 359.879 383.713 359.546 383.448 359.263C383.183 358.981 382.863 358.756 382.509 358.602C382.154 358.448 381.771 358.369 381.384 358.369C380.998 358.369 380.615 358.448 380.26 358.602C379.905 358.756 379.585 358.981 379.321 359.263C379.056 359.546 378.852 359.879 378.721 360.244C378.59 360.608 378.535 360.996 378.559 361.382M385.154 361.382C385.173 362.133 384.969 362.873 384.566 363.507C384.163 364.14 383.581 364.639 382.893 364.939C382.205 365.239 381.444 365.326 380.706 365.189C379.969 365.052 379.289 364.698 378.754 364.172C378.219 363.645 377.853 362.971 377.703 362.235C377.553 361.499 377.627 360.735 377.914 360.04C378.2 359.346 378.688 358.754 379.313 358.339C379.938 357.924 380.673 357.706 381.423 357.713C381.909 357.708 382.39 357.8 382.841 357.982C383.291 358.164 383.701 358.433 384.047 358.774C384.394 359.114 384.67 359.52 384.859 359.968C385.049 360.415 385.149 360.896 385.154 361.382Z" fill="black"/>
</g>
</g>
<defs>
<clipPath id="clip0_233_671">
<rect width="522.426" height="725" fill="white" transform="translate(0.286621)"/>
</clipPath>
</defs>
</svg>
