<svg width="198" height="64" viewBox="0 0 198 64" fill="none" xmlns="http://www.w3.org/2000/svg">
<g clip-path="url(#clip0_233_529)">
<path d="M46.6206 37.4778L46.2302 38.5289C45.4547 40.4784 44.231 42.2075 42.6629 43.5692C41.0948 44.931 39.2288 45.8851 37.2233 46.3507C36.9548 46.4107 36.6862 46.4477 36.4199 46.4916V62.0566C37.802 61.9675 39.1757 61.7729 40.5295 61.4745C52.2017 58.8064 60.4954 48.9518 62.0323 37.4778H46.6206Z" fill="#E41938"/>
<path d="M36.2261 0.14314C36.2261 0.14314 40.4418 0.0784593 41.9877 0.321013C41.9877 0.321013 48.1171 0.942412 55.3027 5.70571L47.1174 18.9099C47.1174 18.9099 42.5925 14.6271 36.2261 15.9692V0.14314Z" fill="#E41938"/>
<path d="M49.5073 35.66C49.5073 35.66 50.3536 34.0637 50.41 33.8489L63.7251 16.0616C63.7251 16.0616 68.5524 25.5998 65.86 35.6646L49.5073 35.66Z" fill="#E41938"/>
<path d="M63.7231 16.0616L40.266 21.444C39.2746 21.8957 38.4066 22.5893 37.7377 23.464C37.0689 24.3387 36.6197 25.3679 36.4295 26.4614C36.4295 26.4614 36.2331 29.0025 37.0072 31.1161C37.3275 32.0102 37.8292 32.8246 38.4791 33.5059C39.1291 34.1871 39.9127 34.7197 40.7783 35.0686C40.7783 35.0686 43.175 35.8794 44.5065 35.2026L50.4126 33.8512L63.7231 16.0616Z" fill="#F08D26"/>
<path d="M76.2075 0.535889H98.3376L96.9407 9.73907H86.8573L86.3337 12.9546H95.5437L94.1896 21.712H84.9819L84.5012 25.0176H94.9321L93.4923 34.2208H71.0146L76.2075 0.535889Z" fill="#E41938"/>
<path d="M131.068 0.535889L128.013 20.4599C126.485 30.2891 119.764 34.7567 110.556 34.7567C101.349 34.7567 96.0225 30.2891 97.5481 20.4599L100.604 0.535889H112.565L109.681 19.3003C109.29 21.9453 108.983 24.2553 112.163 24.2553C115.343 24.2553 115.837 21.9453 116.225 19.3003L119.109 0.535889H131.068Z" fill="#E41938"/>
<path d="M133.51 0.535889H147.953C155.373 0.535889 161.178 3.75146 159.869 12.2408C159.086 17.3252 156.815 19.4782 152.146 20.9982L152.101 21.2661C152.625 21.7559 153.281 22.2918 153.805 23.2759L159.26 34.2208H145.468L141.889 23.4099H141.663L140.005 34.2208H128.314L133.51 0.535889ZM142.936 15.4564H143.758C145.723 15.4564 147.73 15.1446 148.122 12.6428C148.517 10.0509 146.768 9.73907 144.719 9.73907H143.803L142.936 15.4564Z" fill="#E41938"/>
<path d="M196.312 17.4684C194.653 28.2793 185.479 34.7567 175.45 34.7567C165.421 34.7567 158.253 28.2886 159.912 17.4684C161.571 6.87916 170.823 -0.00012207 180.817 -0.00012207C190.81 -0.00012207 197.97 6.87916 196.312 17.4684ZM171.968 17.6462C171.356 21.4878 173.493 24.1143 177.115 24.1143C180.738 24.1143 183.66 21.4786 184.274 17.6462C184.797 14.0726 182.92 11.0788 179.124 11.0788C175.328 11.0788 172.482 14.0726 171.968 17.6462Z" fill="#E41938"/>
<path d="M86.8862 59.9338C84.977 62.4587 82.4765 63.4174 80.0797 63.4174C72.4067 63.4174 67.8931 57.5522 67.8931 50.2294C67.8931 42.694 72.4067 36.8312 80.0797 36.8312C85.1508 36.8312 89.9419 40.0306 90.5332 45.7895H85.329C84.7039 42.9805 82.6547 41.5229 80.0843 41.5229C75.187 41.5229 73.3477 45.7895 73.3477 50.2317C73.3477 54.4637 75.187 58.728 80.0843 58.728C83.6274 58.728 85.6766 56.7737 85.988 53.2532H80.5018V49.0952H90.9191V62.8168H87.4459L86.8862 59.9338Z" fill="#F08D26"/>
<path d="M92.98 44.4358H97.6673V47.8477H97.7192C98.622 45.5377 101.053 43.9391 103.449 43.9391C103.815 43.9436 104.177 44.0035 104.526 44.117V48.8087C103.942 48.6898 103.349 48.6302 102.754 48.6308C99.1433 48.6308 97.893 51.2966 97.893 54.5307V62.8144H92.98V44.4358Z" fill="#F08D26"/>
<path d="M112.732 43.9391C118.392 43.9391 122.039 47.7784 122.039 53.6412C122.039 59.4694 118.392 63.3087 112.732 63.3087C107.105 63.3087 103.458 59.4694 103.458 53.6412C103.458 47.7784 107.105 43.9391 112.732 43.9391ZM106.828 37.434H111.515V41.5921H106.828V37.434ZM112.732 59.5087C116.099 59.5087 117.108 56.5588 117.108 53.6435C117.108 50.6936 116.099 47.7414 112.732 47.7414C109.398 47.7414 108.39 50.6936 108.39 53.6435C108.39 56.5588 109.398 59.5087 112.732 59.5087ZM113.982 37.434H118.669V41.5921H113.982V37.434Z" fill="#F08D26"/>
<path d="M123.393 37.434H128.326V46.6742H128.394C129.61 44.7892 131.833 43.9368 134.056 43.9368C137.633 43.9368 141.488 46.8867 141.488 53.6043C141.488 60.3588 137.633 63.3064 134.056 63.3064C131.415 63.3064 129.229 62.4887 128.152 60.4628H128.082V62.8097H123.393V37.434ZM132.354 47.7414C129.436 47.7414 128.152 50.5504 128.152 53.6435C128.152 56.6997 129.436 59.5087 132.354 59.5087C135.272 59.5087 136.556 56.6997 136.556 53.6435C136.556 50.5504 135.27 47.7414 132.354 47.7414Z" fill="#F08D26"/>
<path d="M146.836 54.8517C146.974 58.0511 148.502 59.5087 151.246 59.5087C153.225 59.5087 154.823 58.2636 155.137 57.1271H159.477C158.089 61.463 155.137 63.3111 151.072 63.3111C145.412 63.3111 141.905 59.3309 141.905 53.6436C141.905 48.1318 145.62 43.9414 151.072 43.9414C157.184 43.9414 160.136 49.2014 159.79 54.854L146.836 54.8517ZM154.859 51.6523C154.408 49.0928 153.329 47.7414 150.935 47.7414C147.809 47.7414 146.906 50.2293 146.836 51.6523H154.859Z" fill="#F08D26"/>
<path d="M160.867 44.4358H165.554V47.8477H165.624C166.527 45.5377 168.957 43.9391 171.354 43.9391C171.719 43.9434 172.082 44.0033 172.431 44.117V48.8087C171.848 48.69 171.255 48.6304 170.661 48.6308C167.05 48.6308 165.798 51.2966 165.798 54.5307V62.8144H160.867V44.4358Z" fill="#F08D26"/>
<path d="M182.254 49.3909C182.254 51.7009 180.927 52.812 178.702 52.812C176.477 52.812 175.161 51.7032 175.161 49.3909V44.0963H176.989V49.3909C176.989 50.3149 177.215 51.2389 178.702 51.2389C180.006 51.2389 180.426 50.6544 180.426 49.3909V44.0963H182.254V49.3909Z" fill="#E41938"/>
<path d="M184.606 49.7835C184.606 50.9154 185.468 51.3566 186.445 51.3566C187.086 51.3566 188.065 51.1672 188.065 50.2963C188.065 49.3723 186.817 49.2221 185.583 48.8895C184.348 48.5568 183.1 48.0671 183.1 46.4686C183.1 44.7268 184.707 43.8929 186.21 43.8929C187.946 43.8929 189.543 44.6667 189.543 46.6349H187.788C187.729 45.6092 187.018 45.3482 186.145 45.3482C185.563 45.3482 184.888 45.5977 184.888 46.3138C184.888 46.9699 185.283 47.053 187.37 47.6005C187.977 47.7553 189.853 48.1503 189.853 50.0815C189.853 51.6431 188.652 52.8119 186.391 52.8119C184.551 52.8119 182.827 51.8879 182.85 49.7835H184.606Z" fill="#E41938"/>
<path d="M192.73 44.0963H194.605L197.717 52.611H195.817L195.19 50.7145H192.073L191.421 52.611H189.57L192.73 44.0963ZM192.556 49.3192H194.711L193.657 46.2007H193.633L192.556 49.3192Z" fill="#E41938"/>
<path d="M175.924 54.1588H177.752V61.1004H181.814V62.6735H175.924V54.1588Z" fill="#F08D26"/>
<path d="M182.364 54.1588H184.192V61.1004H188.254V62.6735H182.364V54.1588Z" fill="#F08D26"/>
<path d="M194.351 57.0209C194.236 56.1731 193.448 55.5309 192.545 55.5309C190.902 55.5309 190.289 56.9608 190.289 58.4508C190.289 59.8714 190.905 61.3014 192.545 61.3014C193.674 61.3014 194.294 60.5159 194.432 59.3933H196.204C196.019 61.5162 194.586 62.8768 192.545 62.8768C189.97 62.8768 188.456 60.9086 188.456 58.4508C188.456 55.9236 189.97 53.9554 192.545 53.9554C194.376 53.9554 195.912 55.0527 196.134 57.0209H194.351Z" fill="#F08D26"/>
<path d="M31.7738 18.9885C32.7164 18.7387 33.6844 18.603 34.658 18.5842V3.07465C32.5739 3.09984 30.4991 3.36328 28.4721 3.86006C16.1703 6.67368 7.51102 17.6209 6.67375 29.841H4.34474L2.63184 32.6131H31.4014L33.1143 29.841H21.8913C22.6631 24.2854 26.52 20.1897 31.7738 18.9885Z" fill="#E41938"/>
<path d="M21.5885 37.6165H28.7696L30.4825 34.8445H1.71291L0 37.6165H5.53591C7.0079 44.2767 10.7427 50.1854 16.0746 54.2892C21.4066 58.3931 27.989 60.4254 34.6485 60.0239V44.4843C29.23 45.2281 24.0822 42.6154 21.5885 37.6165Z" fill="#E41938"/>
</g>
<defs>
<clipPath id="clip0_233_529">
<rect width="197.713" height="63.4174" fill="white"/>
</clipPath>
</defs>
</svg>
